<svg width="482" height="426" viewBox="0 0 482 426" fill="none" 
    xmlns="http://www.w3.org/2000/svg">
    <rect width="482" height="377" rx="19" fill="#C4C4C4" fill-opacity="0.2"/>
    <rect x="41" y="22" width="400" height="304" rx="19" fill="#C4C4C4" fill-opacity="0.5"/>
    <rect x="100" y="47" width="282" height="214" rx="19" fill="#C4C4C4"/>
    <circle cx="432.5" cy="28.5" r="15.5" fill="#C4C4C4" fill-opacity="0.6"/>
    <rect x="357" y="329" width="91" height="30" fill="#C4C4C4" fill-opacity="0.3"/>
    <line x1="348.354" y1="59.6464" x2="366.354" y2="77.6464" stroke="black" stroke-opacity="0.62"/>
    <line y1="-0.5" x2="25.4558" y2="-0.5" transform="matrix(-0.707107 0.707107 0.707107 0.707107 366 60)" stroke="black" stroke-opacity="0.62"/>
    <path d="M36.644 414H34.196V389.928H41.268C42.4467 389.928 43.5347 390.041 44.532 390.268C45.552 390.495 46.4247 390.869 47.15 391.39C47.898 391.889 48.476 392.546 48.884 393.362C49.292 394.178 49.496 395.175 49.496 396.354C49.496 397.238 49.3373 398.043 49.02 398.768C48.7027 399.493 48.272 400.128 47.728 400.672C47.184 401.193 46.538 401.613 45.79 401.93C45.042 402.247 44.226 402.451 43.342 402.542L50.38 414H47.388L40.724 402.746H36.644V414ZM36.644 400.638H40.894C42.866 400.638 44.3847 400.287 45.45 399.584C46.5153 398.859 47.048 397.782 47.048 396.354C47.048 395.561 46.9007 394.892 46.606 394.348C46.3113 393.804 45.9033 393.362 45.382 393.022C44.8607 392.682 44.226 392.433 43.478 392.274C42.73 392.115 41.9027 392.036 40.996 392.036H36.644V400.638ZM66.1531 404.82C66.0851 403.324 65.5977 402.089 64.6911 401.114C63.8071 400.117 62.5377 399.618 60.8831 399.618C60.1124 399.618 59.3984 399.765 58.7411 400.06C58.0837 400.332 57.5057 400.717 57.0071 401.216C56.5084 401.692 56.1117 402.247 55.8171 402.882C55.5224 403.494 55.3524 404.14 55.3071 404.82H66.1531ZM68.4991 405.568C68.4991 405.727 68.4991 405.897 68.4991 406.078C68.4991 406.259 68.4877 406.452 68.4651 406.656H55.2731C55.2957 407.449 55.4544 408.197 55.7491 408.9C56.0437 409.603 56.4517 410.215 56.9731 410.736C57.4944 411.257 58.1064 411.677 58.8091 411.994C59.5117 412.289 60.2711 412.436 61.0871 412.436C62.2884 412.436 63.3197 412.164 64.1811 411.62C65.0651 411.053 65.7337 410.407 66.1871 409.682L67.9211 411.042C66.9691 412.243 65.9151 413.105 64.7591 413.626C63.6257 414.147 62.4017 414.408 61.0871 414.408C59.9084 414.408 58.8091 414.204 57.7891 413.796C56.7917 413.365 55.9304 412.776 55.2051 412.028C54.4797 411.28 53.9017 410.396 53.4711 409.376C53.0631 408.356 52.8591 407.245 52.8591 406.044C52.8591 404.843 53.0631 403.732 53.4711 402.712C53.8791 401.692 54.4457 400.808 55.1711 400.06C55.8964 399.312 56.7464 398.734 57.7211 398.326C58.6957 397.895 59.7497 397.68 60.8831 397.68C62.1297 397.68 63.2291 397.895 64.1811 398.326C65.1331 398.734 65.9264 399.301 66.5611 400.026C67.1957 400.729 67.6717 401.556 67.9891 402.508C68.3291 403.46 68.4991 404.48 68.4991 405.568ZM83.3029 403.732C83.3029 402.349 82.9402 401.318 82.2149 400.638C81.4896 399.958 80.4356 399.618 79.0529 399.618C78.1009 399.618 77.2169 399.788 76.4009 400.128C75.5849 400.468 74.8936 400.921 74.3269 401.488L73.0349 399.958C73.6922 399.301 74.5536 398.757 75.6189 398.326C76.7069 397.895 77.9309 397.68 79.2909 397.68C80.1522 397.68 80.9569 397.805 81.7049 398.054C82.4529 398.281 83.1102 398.632 83.6769 399.108C84.2436 399.584 84.6856 400.185 85.0029 400.91C85.3202 401.635 85.4789 402.485 85.4789 403.46V410.43C85.4789 411.042 85.5016 411.677 85.5469 412.334C85.5922 412.991 85.6602 413.547 85.7509 414H83.6769C83.6089 413.615 83.5522 413.195 83.5069 412.742C83.4616 412.289 83.4389 411.847 83.4389 411.416H83.3709C82.6456 412.481 81.8182 413.252 80.8889 413.728C79.9822 414.181 78.8829 414.408 77.5909 414.408C76.9789 414.408 76.3442 414.317 75.6869 414.136C75.0522 413.977 74.4629 413.705 73.9189 413.32C73.3976 412.935 72.9556 412.436 72.5929 411.824C72.2529 411.212 72.0829 410.464 72.0829 409.58C72.0829 408.356 72.3889 407.393 73.0009 406.69C73.6356 405.965 74.4742 405.432 75.5169 405.092C76.5596 404.729 77.7496 404.503 79.0869 404.412C80.4469 404.299 81.8522 404.242 83.3029 404.242V403.732ZM82.6229 406.044C81.6709 406.044 80.7076 406.089 79.7329 406.18C78.7809 406.248 77.9082 406.407 77.1149 406.656C76.3442 406.883 75.7096 407.223 75.2109 407.676C74.7122 408.129 74.4629 408.73 74.4629 409.478C74.4629 410.045 74.5649 410.521 74.7689 410.906C74.9956 411.291 75.2902 411.609 75.6529 411.858C76.0156 412.085 76.4122 412.255 76.8429 412.368C77.2962 412.459 77.7496 412.504 78.2029 412.504C79.0189 412.504 79.7442 412.368 80.3789 412.096C81.0136 411.801 81.5462 411.416 81.9769 410.94C82.4076 410.441 82.7362 409.875 82.9629 409.24C83.1896 408.605 83.3029 407.937 83.3029 407.234V406.044H82.6229ZM102.893 401.726C102.508 401.114 101.941 400.615 101.193 400.23C100.468 399.822 99.6743 399.618 98.813 399.618C97.8837 399.618 97.045 399.788 96.297 400.128C95.549 400.445 94.903 400.899 94.359 401.488C93.8377 402.055 93.4297 402.735 93.135 403.528C92.863 404.299 92.727 405.137 92.727 406.044C92.727 406.951 92.863 407.789 93.135 408.56C93.4297 409.331 93.8377 410.011 94.359 410.6C94.8803 411.167 95.515 411.62 96.263 411.96C97.011 412.277 97.8497 412.436 98.779 412.436C99.799 412.436 100.66 412.243 101.363 411.858C102.066 411.473 102.644 410.974 103.097 410.362L104.831 411.654C104.151 412.493 103.312 413.161 102.315 413.66C101.34 414.159 100.162 414.408 98.779 414.408C97.487 414.408 96.3197 414.204 95.277 413.796C94.2343 413.365 93.339 412.776 92.591 412.028C91.8657 411.28 91.299 410.396 90.891 409.376C90.483 408.356 90.279 407.245 90.279 406.044C90.279 404.843 90.483 403.732 90.891 402.712C91.299 401.692 91.8657 400.808 92.591 400.06C93.339 399.312 94.2343 398.734 95.277 398.326C96.3197 397.895 97.487 397.68 98.779 397.68C99.8443 397.68 100.921 397.918 102.009 398.394C103.12 398.847 104.015 399.527 104.695 400.434L102.893 401.726ZM115.609 400.026H111.121V409.308C111.121 409.897 111.178 410.385 111.291 410.77C111.404 411.155 111.563 411.461 111.767 411.688C111.994 411.892 112.254 412.039 112.549 412.13C112.844 412.198 113.161 412.232 113.501 412.232C113.818 412.232 114.147 412.187 114.487 412.096C114.85 412.005 115.19 411.881 115.507 411.722L115.609 413.728C115.201 413.887 114.77 414 114.317 414.068C113.886 414.159 113.41 414.204 112.889 414.204C112.458 414.204 112.005 414.147 111.529 414.034C111.053 413.921 110.611 413.705 110.203 413.388C109.795 413.071 109.455 412.64 109.183 412.096C108.934 411.552 108.809 410.838 108.809 409.954V400.026H105.511V398.088H108.809V393.6H111.121V398.088H115.609V400.026ZM138.504 402.542C138.187 402.134 137.756 401.805 137.212 401.556C136.668 401.307 136.113 401.182 135.546 401.182C134.957 401.182 134.424 401.307 133.948 401.556C133.472 401.783 133.064 402.1 132.724 402.508C132.384 402.893 132.112 403.347 131.908 403.868C131.727 404.389 131.636 404.945 131.636 405.534C131.636 406.123 131.727 406.679 131.908 407.2C132.089 407.721 132.35 408.186 132.69 408.594C133.053 408.979 133.472 409.285 133.948 409.512C134.447 409.739 135.002 409.852 135.614 409.852C136.181 409.852 136.736 409.75 137.28 409.546C137.847 409.319 138.3 409.002 138.64 408.594L141.734 412.368C141.031 413.048 140.125 413.581 139.014 413.966C137.903 414.351 136.725 414.544 135.478 414.544C134.141 414.544 132.894 414.34 131.738 413.932C130.582 413.524 129.573 412.935 128.712 412.164C127.873 411.371 127.205 410.419 126.706 409.308C126.23 408.197 125.992 406.939 125.992 405.534C125.992 404.151 126.23 402.905 126.706 401.794C127.205 400.683 127.873 399.743 128.712 398.972C129.573 398.179 130.582 397.578 131.738 397.17C132.894 396.739 134.129 396.524 135.444 396.524C136.056 396.524 136.657 396.581 137.246 396.694C137.858 396.807 138.436 396.966 138.98 397.17C139.547 397.351 140.057 397.589 140.51 397.884C140.986 398.156 141.394 398.462 141.734 398.802L138.504 402.542ZM155.094 414V411.654H155.026C154.822 412.039 154.55 412.402 154.21 412.742C153.892 413.082 153.507 413.377 153.054 413.626C152.623 413.875 152.136 414.079 151.592 414.238C151.07 414.397 150.515 414.476 149.926 414.476C148.792 414.476 147.829 414.272 147.036 413.864C146.265 413.456 145.63 412.935 145.132 412.3C144.656 411.643 144.304 410.906 144.078 410.09C143.874 409.251 143.772 408.401 143.772 407.54V397.068H149.382V406.248C149.382 406.724 149.416 407.177 149.484 407.608C149.552 408.039 149.676 408.424 149.858 408.764C150.062 409.104 150.322 409.376 150.64 409.58C150.957 409.761 151.376 409.852 151.898 409.852C152.872 409.852 153.609 409.489 154.108 408.764C154.629 408.039 154.89 407.189 154.89 406.214V397.068H160.466V414H155.094ZM174.788 402.066C174.335 401.635 173.802 401.273 173.19 400.978C172.578 400.683 171.932 400.536 171.252 400.536C170.731 400.536 170.244 400.638 169.79 400.842C169.36 401.046 169.144 401.397 169.144 401.896C169.144 402.372 169.382 402.712 169.858 402.916C170.357 403.12 171.15 403.347 172.238 403.596C172.873 403.732 173.508 403.925 174.142 404.174C174.8 404.423 175.389 404.752 175.91 405.16C176.432 405.568 176.851 406.067 177.168 406.656C177.486 407.245 177.644 407.948 177.644 408.764C177.644 409.829 177.429 410.736 176.998 411.484C176.568 412.209 176.001 412.799 175.298 413.252C174.618 413.705 173.848 414.034 172.986 414.238C172.125 414.442 171.264 414.544 170.402 414.544C169.02 414.544 167.66 414.329 166.322 413.898C165.008 413.445 163.908 412.787 163.024 411.926L166.152 408.628C166.651 409.172 167.263 409.625 167.988 409.988C168.714 410.351 169.484 410.532 170.3 410.532C170.754 410.532 171.196 410.43 171.626 410.226C172.08 409.999 172.306 409.614 172.306 409.07C172.306 408.549 172.034 408.163 171.49 407.914C170.946 407.665 170.096 407.404 168.94 407.132C168.351 406.996 167.762 406.815 167.172 406.588C166.583 406.361 166.05 406.055 165.574 405.67C165.121 405.285 164.747 404.809 164.452 404.242C164.158 403.675 164.01 402.995 164.01 402.202C164.01 401.182 164.226 400.321 164.656 399.618C165.087 398.893 165.642 398.303 166.322 397.85C167.002 397.397 167.75 397.068 168.566 396.864C169.405 396.637 170.232 396.524 171.048 396.524C172.318 396.524 173.553 396.728 174.754 397.136C175.978 397.521 177.01 398.111 177.848 398.904L174.788 402.066ZM186.916 401.25V407.71C186.916 408.503 187.063 409.104 187.358 409.512C187.675 409.897 188.23 410.09 189.024 410.09C189.296 410.09 189.579 410.067 189.874 410.022C190.191 409.977 190.452 409.909 190.656 409.818L190.724 413.898C190.338 414.034 189.851 414.147 189.262 414.238C188.672 414.351 188.083 414.408 187.494 414.408C186.36 414.408 185.408 414.272 184.638 414C183.867 413.705 183.244 413.297 182.768 412.776C182.314 412.232 181.986 411.597 181.782 410.872C181.578 410.124 181.476 409.297 181.476 408.39V401.25H178.756V397.068H181.442V392.614H186.916V397.068H190.894V401.25H186.916ZM211.466 405.466C211.466 406.849 211.217 408.107 210.718 409.24C210.219 410.351 209.539 411.303 208.678 412.096C207.817 412.867 206.819 413.467 205.686 413.898C204.553 414.329 203.34 414.544 202.048 414.544C200.779 414.544 199.566 414.329 198.41 413.898C197.277 413.467 196.279 412.867 195.418 412.096C194.579 411.303 193.911 410.351 193.412 409.24C192.913 408.107 192.664 406.849 192.664 405.466C192.664 404.083 192.913 402.837 193.412 401.726C193.911 400.615 194.579 399.675 195.418 398.904C196.279 398.133 197.277 397.544 198.41 397.136C199.566 396.728 200.779 396.524 202.048 396.524C203.34 396.524 204.553 396.728 205.686 397.136C206.819 397.544 207.817 398.133 208.678 398.904C209.539 399.675 210.219 400.615 210.718 401.726C211.217 402.837 211.466 404.083 211.466 405.466ZM206.094 405.466C206.094 404.922 206.003 404.389 205.822 403.868C205.641 403.347 205.38 402.893 205.04 402.508C204.7 402.1 204.281 401.771 203.782 401.522C203.283 401.273 202.705 401.148 202.048 401.148C201.391 401.148 200.813 401.273 200.314 401.522C199.815 401.771 199.396 402.1 199.056 402.508C198.739 402.893 198.489 403.347 198.308 403.868C198.149 404.389 198.07 404.922 198.07 405.466C198.07 406.01 198.149 406.543 198.308 407.064C198.489 407.585 198.75 408.061 199.09 408.492C199.43 408.9 199.849 409.229 200.348 409.478C200.847 409.727 201.425 409.852 202.082 409.852C202.739 409.852 203.317 409.727 203.816 409.478C204.315 409.229 204.734 408.9 205.074 408.492C205.414 408.061 205.663 407.585 205.822 407.064C206.003 406.543 206.094 406.01 206.094 405.466ZM236.62 414V404.752C236.62 404.276 236.586 403.823 236.518 403.392C236.45 402.939 236.326 402.553 236.144 402.236C235.963 401.919 235.714 401.669 235.396 401.488C235.102 401.284 234.705 401.182 234.206 401.182C233.73 401.182 233.311 401.284 232.948 401.488C232.608 401.692 232.314 401.964 232.064 402.304C231.838 402.644 231.668 403.041 231.554 403.494C231.441 403.925 231.384 404.378 231.384 404.854V414H225.808V404.344C225.808 403.369 225.616 402.599 225.23 402.032C224.845 401.465 224.233 401.182 223.394 401.182C222.51 401.182 221.819 401.533 221.32 402.236C220.844 402.939 220.606 403.8 220.606 404.82V414H214.996V397.068H220.402V399.414H220.47C220.674 399.051 220.924 398.7 221.218 398.36C221.536 398.02 221.91 397.725 222.34 397.476C222.771 397.204 223.247 396.989 223.768 396.83C224.312 396.671 224.902 396.592 225.536 396.592C226.76 396.592 227.792 396.841 228.63 397.34C229.492 397.839 230.16 398.553 230.636 399.482C231.203 398.598 231.928 397.895 232.812 397.374C233.696 396.853 234.773 396.592 236.042 396.592C237.198 396.592 238.162 396.807 238.932 397.238C239.726 397.646 240.36 398.19 240.836 398.87C241.312 399.527 241.652 400.275 241.856 401.114C242.083 401.93 242.196 402.735 242.196 403.528V414H236.62ZM252.458 391.662C252.458 392.093 252.368 392.501 252.186 392.886C252.028 393.249 251.801 393.566 251.506 393.838C251.234 394.11 250.894 394.325 250.486 394.484C250.101 394.643 249.693 394.722 249.262 394.722C248.356 394.722 247.596 394.427 246.984 393.838C246.372 393.226 246.066 392.501 246.066 391.662C246.066 391.254 246.146 390.869 246.304 390.506C246.463 390.121 246.69 389.792 246.984 389.52C247.279 389.248 247.619 389.033 248.004 388.874C248.39 388.693 248.809 388.602 249.262 388.602C249.693 388.602 250.101 388.681 250.486 388.84C250.894 388.999 251.234 389.214 251.506 389.486C251.801 389.758 252.028 390.087 252.186 390.472C252.368 390.835 252.458 391.231 252.458 391.662ZM246.474 414V397.068H252.05V414H246.474ZM255.447 414V409.648L263.403 401.352H255.753V397.068H270.203V401.25L262.009 409.682H270.543V414H255.447ZM283.861 406.622H283.147C282.535 406.622 281.912 406.656 281.277 406.724C280.665 406.769 280.11 406.871 279.611 407.03C279.135 407.189 278.739 407.427 278.421 407.744C278.104 408.039 277.945 408.435 277.945 408.934C277.945 409.251 278.013 409.523 278.149 409.75C278.308 409.977 278.501 410.158 278.727 410.294C278.954 410.43 279.215 410.532 279.509 410.6C279.804 410.645 280.087 410.668 280.359 410.668C281.493 410.668 282.354 410.362 282.943 409.75C283.555 409.115 283.861 408.265 283.861 407.2V406.622ZM273.627 399.38C274.625 398.428 275.781 397.714 277.095 397.238C278.433 396.762 279.793 396.524 281.175 396.524C282.603 396.524 283.805 396.705 284.779 397.068C285.777 397.408 286.581 397.952 287.193 398.7C287.805 399.425 288.247 400.355 288.519 401.488C288.814 402.599 288.961 403.925 288.961 405.466V414H283.861V412.198H283.759C283.329 412.901 282.671 413.445 281.787 413.83C280.926 414.215 279.985 414.408 278.965 414.408C278.285 414.408 277.583 414.317 276.857 414.136C276.132 413.955 275.463 413.66 274.851 413.252C274.262 412.844 273.775 412.3 273.389 411.62C273.004 410.94 272.811 410.101 272.811 409.104C272.811 407.88 273.14 406.894 273.797 406.146C274.477 405.398 275.339 404.82 276.381 404.412C277.447 404.004 278.625 403.732 279.917 403.596C281.209 403.46 282.467 403.392 283.691 403.392V403.12C283.691 402.281 283.397 401.669 282.807 401.284C282.218 400.876 281.493 400.672 280.631 400.672C279.838 400.672 279.067 400.842 278.319 401.182C277.594 401.522 276.971 401.93 276.449 402.406L273.627 399.38ZM311.993 405.466C311.993 406.645 311.812 407.778 311.449 408.866C311.087 409.954 310.554 410.917 309.851 411.756C309.171 412.572 308.333 413.229 307.335 413.728C306.338 414.227 305.205 414.476 303.935 414.476C302.802 414.476 301.725 414.249 300.705 413.796C299.708 413.32 298.937 412.651 298.393 411.79H298.325V414H293.191V388.296H298.767V398.87H298.835C299.311 398.303 299.98 397.782 300.841 397.306C301.703 396.83 302.757 396.592 304.003 396.592C305.227 396.592 306.327 396.83 307.301 397.306C308.299 397.782 309.137 398.428 309.817 399.244C310.52 400.06 311.053 401.012 311.415 402.1C311.801 403.165 311.993 404.287 311.993 405.466ZM306.621 405.466C306.621 404.922 306.531 404.389 306.349 403.868C306.191 403.347 305.941 402.893 305.601 402.508C305.261 402.1 304.842 401.771 304.343 401.522C303.845 401.273 303.267 401.148 302.609 401.148C301.975 401.148 301.408 401.273 300.909 401.522C300.411 401.771 299.98 402.1 299.617 402.508C299.277 402.916 299.005 403.381 298.801 403.902C298.62 404.423 298.529 404.956 298.529 405.5C298.529 406.044 298.62 406.577 298.801 407.098C299.005 407.619 299.277 408.084 299.617 408.492C299.98 408.9 300.411 409.229 300.909 409.478C301.408 409.727 301.975 409.852 302.609 409.852C303.267 409.852 303.845 409.727 304.343 409.478C304.842 409.229 305.261 408.9 305.601 408.492C305.941 408.084 306.191 407.619 306.349 407.098C306.531 406.554 306.621 406.01 306.621 405.466ZM315.603 414V388.296H321.247V414H315.603ZM337.324 403.596C337.324 402.712 337.041 401.953 336.474 401.318C335.93 400.683 335.103 400.366 333.992 400.366C333.448 400.366 332.95 400.457 332.496 400.638C332.043 400.797 331.646 401.023 331.306 401.318C330.966 401.613 330.694 401.964 330.49 402.372C330.286 402.757 330.173 403.165 330.15 403.596H337.324ZM342.458 405.738C342.458 405.965 342.458 406.191 342.458 406.418C342.458 406.645 342.447 406.86 342.424 407.064H330.15C330.196 407.54 330.332 407.971 330.558 408.356C330.808 408.741 331.114 409.081 331.476 409.376C331.862 409.648 332.281 409.863 332.734 410.022C333.21 410.181 333.698 410.26 334.196 410.26C335.08 410.26 335.828 410.101 336.44 409.784C337.052 409.444 337.551 409.013 337.936 408.492L341.812 410.94C341.019 412.096 339.965 412.991 338.65 413.626C337.358 414.238 335.851 414.544 334.128 414.544C332.859 414.544 331.658 414.351 330.524 413.966C329.391 413.558 328.394 412.98 327.532 412.232C326.694 411.461 326.025 410.521 325.526 409.41C325.05 408.299 324.812 407.03 324.812 405.602C324.812 404.219 325.05 402.973 325.526 401.862C326.002 400.729 326.648 399.777 327.464 399.006C328.28 398.213 329.244 397.601 330.354 397.17C331.465 396.739 332.666 396.524 333.958 396.524C335.205 396.524 336.35 396.739 337.392 397.17C338.435 397.578 339.33 398.179 340.078 398.972C340.826 399.765 341.404 400.729 341.812 401.862C342.243 402.995 342.458 404.287 342.458 405.738ZM357.578 400.808C358.032 399.879 358.723 399.131 359.652 398.564C360.604 397.975 361.658 397.68 362.814 397.68C363.245 397.68 363.687 397.725 364.14 397.816C364.616 397.907 365.07 398.088 365.5 398.36C365.954 398.609 366.362 398.949 366.724 399.38C367.11 399.811 367.438 400.366 367.71 401.046C368.254 399.958 368.991 399.131 369.92 398.564C370.872 397.975 371.994 397.68 373.286 397.68C375.304 397.68 376.811 398.281 377.808 399.482C378.828 400.683 379.338 402.27 379.338 404.242V414H377.026V405.194C377.026 403.517 376.709 402.168 376.074 401.148C375.462 400.128 374.408 399.618 372.912 399.618C372.074 399.618 371.36 399.788 370.77 400.128C370.204 400.468 369.739 400.921 369.376 401.488C369.036 402.032 368.787 402.655 368.628 403.358C368.47 404.061 368.39 404.786 368.39 405.534V414H366.078V404.718C366.078 403.947 366.022 403.245 365.908 402.61C365.795 401.975 365.591 401.443 365.296 401.012C365.024 400.559 364.639 400.219 364.14 399.992C363.642 399.743 363.007 399.618 362.236 399.618C361.692 399.618 361.137 399.743 360.57 399.992C360.026 400.241 359.528 400.627 359.074 401.148C358.644 401.647 358.292 402.293 358.02 403.086C357.748 403.857 357.612 404.775 357.612 405.84V414H355.3V401.59C355.3 401.159 355.289 400.604 355.266 399.924C355.244 399.244 355.21 398.632 355.164 398.088H357.374C357.42 398.519 357.454 398.995 357.476 399.516C357.499 400.037 357.51 400.468 357.51 400.808H357.578ZM401.126 406.044C401.126 407.245 400.911 408.356 400.48 409.376C400.072 410.396 399.494 411.28 398.746 412.028C397.998 412.776 397.103 413.365 396.06 413.796C395.017 414.204 393.873 414.408 392.626 414.408C391.402 414.408 390.269 414.204 389.226 413.796C388.183 413.365 387.288 412.776 386.54 412.028C385.792 411.28 385.203 410.396 384.772 409.376C384.364 408.356 384.16 407.245 384.16 406.044C384.16 404.843 384.364 403.732 384.772 402.712C385.203 401.692 385.792 400.808 386.54 400.06C387.288 399.312 388.183 398.734 389.226 398.326C390.269 397.895 391.402 397.68 392.626 397.68C393.873 397.68 395.017 397.895 396.06 398.326C397.103 398.734 397.998 399.312 398.746 400.06C399.494 400.808 400.072 401.692 400.48 402.712C400.911 403.732 401.126 404.843 401.126 406.044ZM398.678 406.044C398.678 405.16 398.531 404.333 398.236 403.562C397.964 402.769 397.567 402.089 397.046 401.522C396.525 400.933 395.89 400.468 395.142 400.128C394.394 399.788 393.555 399.618 392.626 399.618C391.697 399.618 390.858 399.788 390.11 400.128C389.385 400.468 388.761 400.933 388.24 401.522C387.719 402.089 387.311 402.769 387.016 403.562C386.744 404.333 386.608 405.16 386.608 406.044C386.608 406.928 386.744 407.767 387.016 408.56C387.311 409.331 387.719 410.011 388.24 410.6C388.761 411.167 389.385 411.62 390.11 411.96C390.858 412.277 391.697 412.436 392.626 412.436C393.555 412.436 394.394 412.277 395.142 411.96C395.89 411.62 396.525 411.167 397.046 410.6C397.567 410.011 397.964 409.331 398.236 408.56C398.531 407.767 398.678 406.928 398.678 406.044ZM419.191 411.314C418.511 412.334 417.627 413.105 416.539 413.626C415.451 414.147 414.329 414.408 413.173 414.408C411.926 414.408 410.793 414.193 409.773 413.762C408.776 413.331 407.914 412.742 407.189 411.994C406.486 411.246 405.931 410.362 405.523 409.342C405.138 408.322 404.945 407.223 404.945 406.044C404.945 404.865 405.138 403.766 405.523 402.746C405.931 401.726 406.486 400.842 407.189 400.094C407.914 399.346 408.776 398.757 409.773 398.326C410.793 397.895 411.926 397.68 413.173 397.68C414.329 397.68 415.451 397.952 416.539 398.496C417.627 399.017 418.511 399.799 419.191 400.842H419.259V388.296H421.571V414H419.259V411.314H419.191ZM407.393 406.044C407.393 406.928 407.529 407.767 407.801 408.56C408.073 409.331 408.458 410.011 408.957 410.6C409.478 411.167 410.113 411.62 410.861 411.96C411.609 412.277 412.459 412.436 413.411 412.436C414.295 412.436 415.111 412.277 415.859 411.96C416.607 411.62 417.253 411.167 417.797 410.6C418.341 410.033 418.76 409.365 419.055 408.594C419.372 407.801 419.531 406.951 419.531 406.044C419.531 405.137 419.372 404.299 419.055 403.528C418.76 402.735 418.341 402.055 417.797 401.488C417.253 400.899 416.607 400.445 415.859 400.128C415.111 399.788 414.295 399.618 413.411 399.618C412.459 399.618 411.609 399.788 410.861 400.128C410.113 400.468 409.478 400.933 408.957 401.522C408.458 402.089 408.073 402.769 407.801 403.562C407.529 404.333 407.393 405.16 407.393 406.044ZM437.779 403.732C437.779 402.349 437.417 401.318 436.691 400.638C435.966 399.958 434.912 399.618 433.529 399.618C432.577 399.618 431.693 399.788 430.877 400.128C430.061 400.468 429.37 400.921 428.803 401.488L427.511 399.958C428.169 399.301 429.03 398.757 430.095 398.326C431.183 397.895 432.407 397.68 433.767 397.68C434.629 397.68 435.433 397.805 436.181 398.054C436.929 398.281 437.587 398.632 438.153 399.108C438.72 399.584 439.162 400.185 439.479 400.91C439.797 401.635 439.955 402.485 439.955 403.46V410.43C439.955 411.042 439.978 411.677 440.023 412.334C440.069 412.991 440.137 413.547 440.227 414H438.153C438.085 413.615 438.029 413.195 437.983 412.742C437.938 412.289 437.915 411.847 437.915 411.416H437.847C437.122 412.481 436.295 413.252 435.365 413.728C434.459 414.181 433.359 414.408 432.067 414.408C431.455 414.408 430.821 414.317 430.163 414.136C429.529 413.977 428.939 413.705 428.395 413.32C427.874 412.935 427.432 412.436 427.069 411.824C426.729 411.212 426.559 410.464 426.559 409.58C426.559 408.356 426.865 407.393 427.477 406.69C428.112 405.965 428.951 405.432 429.993 405.092C431.036 404.729 432.226 404.503 433.563 404.412C434.923 404.299 436.329 404.242 437.779 404.242V403.732ZM437.099 406.044C436.147 406.044 435.184 406.089 434.209 406.18C433.257 406.248 432.385 406.407 431.591 406.656C430.821 406.883 430.186 407.223 429.687 407.676C429.189 408.129 428.939 408.73 428.939 409.478C428.939 410.045 429.041 410.521 429.245 410.906C429.472 411.291 429.767 411.609 430.129 411.858C430.492 412.085 430.889 412.255 431.319 412.368C431.773 412.459 432.226 412.504 432.679 412.504C433.495 412.504 434.221 412.368 434.855 412.096C435.49 411.801 436.023 411.416 436.453 410.94C436.884 410.441 437.213 409.875 437.439 409.24C437.666 408.605 437.779 407.937 437.779 407.234V406.044H437.099ZM448.292 414H445.98V388.296H448.292V414Z" fill="black"/>
</svg>
